<!-- Generated by IcoMoon.io -->
<svg version="1.1" xmlns="http://www.w3.org/2000/svg" width="25" height="25" viewBox="0 0 512 512">
<title></title>
<g id="icomoon-ignore">
</g>
<path fill="#000" d="M192 64c0-35.346 28.654-64 64-64s64 28.654 64 64c0 35.346-28.654 64-64 64s-64-28.654-64-64zM395.497 256c0 0 0 0 0 0 0-28.996 23.507-52.503 52.503-52.503s52.503 23.506 52.503 52.503c0 0 0 0 0 0 0 28.997-23.507 52.503-52.503 52.503s-52.503-23.507-52.503-52.503zM344.212 391.765c0-26.263 21.29-47.553 47.553-47.553s47.553 21.29 47.553 47.553c0 26.263-21.29 47.553-47.553 47.553s-47.553-21.29-47.553-47.553zM212.931 448c0-23.786 19.282-43.069 43.069-43.069s43.069 19.282 43.069 43.069c0 23.786-19.282 43.069-43.069 43.069s-43.069-19.282-43.069-43.069zM81.227 391.765c0-21.544 17.465-39.009 39.009-39.009s39.009 17.465 39.009 39.009c0 21.544-17.465 39.009-39.009 39.009s-39.009-17.465-39.009-39.009zM28.669 256c0-19.513 15.818-35.331 35.331-35.331s35.331 15.818 35.331 35.331c0 19.513-15.818 35.331-35.331 35.331s-35.331-15.818-35.331-35.331zM88.236 120.236c0 0 0 0 0 0 0-17.673 14.327-32 32-32s32 14.327 32 32c0 0 0 0 0 0 0 17.673-14.327 32-32 32s-32-14.327-32-32zM449.732 120.236c0 32.012-25.953 57.967-57.968 57.967-32.012 0-57.968-25.955-57.968-57.967 0-32.016 25.956-57.967 57.968-57.967 32.015 0 57.968 25.951 57.968 57.967z"></path>
</svg>
